<?xml version="1.0" standalone="no"?>
<!DOCTYPE svg PUBLIC "-//W3C//DTD SVG 20010904//EN"
 "http://www.w3.org/TR/2001/REC-SVG-20010904/DTD/svg10.dtd">
<svg version="1.0" xmlns="http://www.w3.org/2000/svg"
 width="500.000000pt" height="500.000000pt" viewBox="0 0 500.000000 500.000000"
 preserveAspectRatio="xMidYMid meet">
<metadata>
Created by potrace 1.14, written by Peter Selinger 2001-2017
</metadata>
<g transform="translate(0.000000,500.000000) scale(0.100000,-0.100000)"
fill="#000000" stroke="none">
<path d="M2273 4776 c-153 -29 -264 -80 -342 -157 -64 -63 -95 -118 -126 -225
-22 -75 -32 -94 -70 -130 -77 -75 -74 -148 11 -230 l54 -51 0 -1186 0 -1185
-41 -39 c-93 -86 -104 -204 -24 -252 38 -22 57 -54 74 -126 42 -169 194 -307
401 -362 91 -25 349 -25 440 0 207 55 359 193 401 362 17 72 36 104 74 126 80
48 69 166 -24 252 l-41 39 0 1185 0 1186 54 52 c85 81 88 154 10 229 -37 36
-47 55 -69 130 -14 49 -37 109 -52 133 -64 109 -188 192 -348 234 -103 26
-284 34 -382 15z m484 -121 c121 -61 213 -181 230 -300 l6 -48 -54 7 c-113 14
-308 26 -423 26 -85 0 -117 3 -109 11 6 6 86 12 199 16 214 5 251 13 260 50
13 51 -56 153 -159 235 -61 47 -41 49 50 3z m173 -385 c116 -14 130 -18 111
-30 -8 -4 -25 -4 -38 1 -14 5 -52 9 -86 9 -59 -1 -61 -1 -37 -15 14 -8 34 -14
46 -15 11 0 24 -3 28 -7 4 -4 26 -6 49 -5 23 1 49 -2 57 -8 11 -8 2 -9 -35 -5
-35 5 -46 3 -35 -4 8 -5 35 -13 60 -16 25 -3 52 -11 60 -16 11 -7 3 -8 -25 -3
-75 13 -172 19 -196 13 l-24 -6 28 -12 c16 -6 39 -11 53 -11 34 0 167 -30 178
-40 13 -12 -3 -33 -17 -22 -7 5 -39 14 -72 20 -148 27 -314 37 -615 37 -268
-1 -339 -4 -472 -22 -87 -12 -167 -27 -177 -33 -14 -7 -22 -7 -26 1 -11 16 -2
20 80 32 l77 12 -34 13 c-20 7 -55 10 -84 6 -33 -3 -44 -2 -34 4 14 9 79 19
270 42 72 9 70 9 -30 5 -58 -3 -125 -7 -150 -10 -26 -2 -15 2 25 10 39 7 118
17 178 21 59 4 107 10 107 14 0 8 -104 3 -205 -11 -44 -6 -91 -9 -105 -7 -14
2 7 8 48 13 40 4 75 11 77 16 3 4 -9 6 -27 3 -126 -18 -180 -20 -163 -8 19 14
116 32 242 44 123 12 798 5 913 -10z m177 -86 c-3 -3 -12 -4 -19 -1 -8 3 -5 6
6 6 11 1 17 -2 13 -5z m-302 -103 c28 -3 -138 -6 -367 -6 -229 0 -415 1 -413
3 18 18 639 21 780 3z m-145 -42 c113 -7 210 -16 215 -22 6 -5 -33 -6 -105 -1
-63 5 -263 8 -445 7 -348 -1 -383 2 -145 16 220 12 259 12 480 0z m-130 -78
c-8 -5 -121 -44 -250 -86 -129 -42 -272 -89 -316 -105 l-82 -27 2 94 c2 108 4
112 81 114 28 1 95 5 150 9 149 10 433 11 415 1z m450 -304 l0 -154 -77 -35
c-128 -59 -197 -83 -425 -149 l-217 -63 -6 -51 c-3 -27 -5 -100 -3 -161 l3
-110 253 80 252 79 0 97 c0 99 7 120 42 120 25 0 38 -39 38 -116 0 -76 7 -79
87 -34 l53 30 0 -178 0 -178 -45 -12 c-25 -7 -62 -27 -82 -46 l-37 -34 0 -155
c-1 -106 3 -160 11 -168 16 -16 73 -4 117 26 l36 24 0 -172 0 -173 -70 -31
-70 -31 0 -72 c0 -78 -11 -110 -38 -110 -31 0 -42 22 -42 82 0 47 -3 58 -17
58 -33 0 -468 -143 -480 -158 -8 -9 -13 -43 -13 -80 0 -78 -11 -102 -49 -102
-36 0 -53 21 -60 73 -9 61 -31 59 -151 -9 -56 -31 -102 -55 -104 -53 -2 2 -1
77 2 167 l5 163 31 16 c17 8 46 29 64 46 l32 31 0 176 c0 97 -3 179 -6 183 -9
9 -98 -21 -110 -38 -16 -22 -24 45 -22 188 1 106 2 108 30 132 16 13 42 32 58
42 l30 17 0 161 c0 89 -3 165 -7 168 -3 4 -25 -4 -49 -18 -23 -14 -45 -25 -49
-25 -3 0 -4 72 -3 161 l3 160 60 25 c171 71 229 91 445 154 282 82 510 161
547 189 16 11 29 21 31 21 1 0 2 -69 2 -153z m0 -1942 c0 -32 -5 -47 -18 -54
-17 -9 -279 -31 -360 -31 -33 1 -35 2 -17 12 17 10 366 116 388 117 4 1 7 -19
7 -44z m-196 -147 c-51 -9 -625 -9 -684 0 -25 4 128 7 339 7 211 0 366 -3 345
-7z m26 -49 c0 -12 -369 -21 -545 -14 -305 13 -249 20 154 20 215 0 391 -3
391 -6z m317 -16 c-4 -4 -54 -15 -110 -25 l-102 -17 80 6 c44 3 78 3 75 0 -6
-6 -209 -35 -285 -40 -45 -3 -43 -4 15 -5 36 -1 108 5 160 13 52 8 104 14 115
14 l20 0 -20 -9 c-11 -5 -33 -10 -50 -11 -27 -2 -26 -3 10 -8 37 -6 33 -8 -55
-24 l-95 -16 75 5 c41 3 93 8 115 11 22 3 37 3 34 0 -5 -6 -124 -26 -252 -42
-27 -4 -47 -8 -45 -11 2 -2 60 3 129 11 142 17 202 19 179 6 -22 -13 -230 -39
-410 -52 -269 -20 -817 8 -917 46 l-38 15 52 -6 c50 -5 139 3 130 12 -2 3 -24
8 -48 13 l-44 9 40 2 40 2 -35 8 c-19 4 -61 13 -92 20 -63 12 -77 30 -25 30
l32 0 -32 21 c-38 24 -44 45 -10 34 83 -25 313 -46 578 -52 253 -5 312 -3 505
17 121 12 230 28 244 34 24 12 51 4 37 -11z m-20 -29 c-3 -3 -12 -4 -19 -1 -8
3 -5 6 6 6 11 1 17 -2 13 -5z m-1304 -91 c-7 -2 -19 -2 -25 0 -7 3 -2 5 12 5
14 0 19 -2 13 -5z m60 -10 c-7 -2 -21 -2 -30 0 -10 3 -4 5 12 5 17 0 24 -2 18
-5z m212 -103 c61 -5 151 -10 200 -11 50 0 110 -4 135 -8 l45 -7 -64 -7 c-35
-4 -118 -7 -185 -7 -146 0 -193 -11 -202 -46 -11 -42 39 -126 118 -199 39 -36
68 -68 65 -71 -11 -11 -122 53 -174 100 -63 57 -95 109 -118 189 -22 76 -16
90 33 83 20 -3 87 -11 147 -16z"/>
<path d="M2070 4160 c-8 -5 -40 -10 -70 -11 -30 0 -64 -4 -75 -9 -12 -6 12 -7
65 -4 47 3 94 9 105 14 11 5 27 11 35 13 8 3 2 6 -15 6 -16 0 -37 -4 -45 -9z"/>
<path d="M2580 2676 c-69 -23 -173 -56 -231 -74 -88 -27 -108 -37 -113 -55 -3
-12 -6 -91 -6 -175 0 -117 3 -154 13 -158 7 -2 126 33 263 78 l249 83 3 173 2
172 -27 -1 c-16 0 -84 -20 -153 -43z"/>
<path d="M2113 2523 c-10 -3 -13 -50 -13 -184 l0 -180 28 3 27 3 3 183 c2 169
1 182 -15 181 -10 0 -24 -3 -30 -6z"/>
<path d="M1818 1453 c7 -3 16 -2 19 1 4 3 -2 6 -13 5 -11 0 -14 -3 -6 -6z"/>
<path d="M2843 1453 c15 -2 37 -2 50 0 12 2 0 4 -28 4 -27 0 -38 -2 -22 -4z"/>
<path d="M2698 1413 c7 -3 16 -2 19 1 4 3 -2 6 -13 5 -11 0 -14 -3 -6 -6z"/>
<path d="M2938 1413 c12 -2 30 -2 40 0 9 3 -1 5 -23 4 -22 0 -30 -2 -17 -4z"/>
<path d="M2777 1373 c18 -2 50 -2 70 0 21 2 7 4 -32 4 -38 0 -55 -2 -38 -4z"/>
<path d="M1070 446 l0 -166 104 0 c90 0 107 3 137 23 84 56 94 200 18 273 -29
28 -34 29 -145 32 l-114 4 0 -166z m178 67 c12 -10 22 -29 23 -43 5 -80 -11
-110 -62 -110 l-29 0 0 85 c0 83 1 85 24 85 13 0 33 -8 44 -17z"/>
<path d="M1420 580 c0 -29 2 -30 45 -30 43 0 45 1 45 30 0 29 -2 30 -45 30
-43 0 -45 -1 -45 -30z"/>
<path d="M1880 445 l0 -165 45 0 45 0 0 165 0 165 -45 0 -45 0 0 -165z"/>
<path d="M2092 528 c-17 -46 -45 -120 -61 -165 l-30 -83 53 0 c49 0 54 2 60
25 6 23 11 25 65 25 54 0 59 -2 65 -25 6 -23 11 -25 61 -25 l54 0 -30 83 c-17
45 -44 119 -61 165 l-30 82 -58 0 -57 0 -31 -82z m98 -43 c25 -67 24 -75 -9
-75 -17 0 -31 3 -31 6 0 13 23 94 26 94 3 0 9 -11 14 -25z"/>
<path d="M2390 445 l0 -165 118 0 c136 0 175 15 187 70 9 39 -10 87 -37 96
-19 6 -19 6 1 28 31 33 28 89 -5 115 -24 19 -40 21 -145 21 l-119 0 0 -165z
m185 65 c0 -10 -12 -16 -37 -18 -33 -3 -38 0 -38 18 0 18 5 21 38 18 25 -2 37
-8 37 -18z m14 -113 c16 -20 -7 -37 -51 -37 -34 0 -38 3 -38 25 0 22 4 25 39
25 21 0 43 -6 50 -13z"/>
<path d="M3260 445 l0 -165 39 0 c23 0 41 5 44 13 3 9 9 7 24 -5 30 -27 78
-23 114 10 27 24 33 37 37 85 3 34 -1 69 -8 87 -21 50 -93 75 -141 50 -18 -10
-19 -7 -19 40 l0 50 -45 0 -45 0 0 -165z m164 -13 c19 -67 -27 -132 -61 -86
-18 25 -16 89 3 109 24 23 47 14 58 -23z"/>
<path d="M1614 511 c-40 -24 -50 -57 -20 -65 36 -10 63 -7 76 9 15 18 56 20
66 4 9 -15 -11 -26 -71 -39 -73 -16 -95 -33 -95 -75 0 -49 29 -75 84 -75 29 0
52 7 70 21 21 17 26 18 26 5 0 -12 11 -16 43 -16 l42 0 -3 87 c-4 103 -14 136
-48 152 -40 18 -135 14 -170 -8z m110 -168 c-24 -18 -58 -13 -62 8 -4 23 71
43 77 20 2 -8 -5 -21 -15 -28z"/>
<path d="M2784 511 c-40 -24 -50 -57 -20 -65 36 -10 63 -7 76 9 15 18 56 20
66 4 9 -15 -11 -26 -71 -39 -73 -16 -95 -33 -95 -75 0 -49 29 -75 84 -75 29 0
52 7 70 21 21 17 26 18 26 5 0 -12 11 -16 43 -16 l42 0 -3 87 c-4 103 -14 136
-48 152 -40 18 -135 14 -170 -8z m110 -168 c-24 -18 -58 -13 -62 8 -4 23 71
43 77 20 2 -8 -5 -21 -15 -28z"/>
<path d="M3152 514 c-12 -8 -22 -10 -22 -5 0 6 -18 11 -40 11 l-40 0 0 -120 0
-120 45 0 45 0 0 63 c0 73 17 112 48 111 23 -1 49 46 37 65 -9 16 -47 13 -73
-5z"/>
<path d="M3608 514 c-36 -19 -58 -63 -58 -114 0 -90 53 -135 152 -128 47 3 64
10 88 33 27 26 29 30 13 37 -27 10 -81 9 -88 -2 -14 -23 -75 2 -75 31 0 5 41
9 90 9 l90 0 0 30 c0 43 -25 87 -60 105 -37 19 -117 19 -152 -1z m110 -56 c21
-21 13 -28 -33 -28 -25 0 -45 4 -45 8 0 15 24 32 45 32 12 0 26 -5 33 -12z"/>
<path d="M3972 514 c-12 -8 -22 -10 -22 -5 0 6 -18 11 -40 11 l-40 0 0 -120 0
-120 45 0 45 0 0 63 c0 73 17 112 48 111 23 -1 49 46 37 65 -9 16 -47 13 -73
-5z"/>
<path d="M1420 400 l0 -120 45 0 45 0 0 120 0 120 -45 0 -45 0 0 -120z"/>
</g>
</svg>
