<?xml version="1.0" standalone="no"?>
<!DOCTYPE svg PUBLIC "-//W3C//DTD SVG 20010904//EN"
 "http://www.w3.org/TR/2001/REC-SVG-20010904/DTD/svg10.dtd">
<svg version="1.0" xmlns="http://www.w3.org/2000/svg"
 width="192.000000pt" height="192.000000pt" viewBox="0 0 192.000000 192.000000"
 preserveAspectRatio="xMidYMid meet">
<metadata>
Created by potrace 1.14, written by Peter Selinger 2001-2017
</metadata>
<g transform="translate(0.000000,192.000000) scale(0.100000,-0.100000)"
fill="#000000" stroke="none">
<path d="M857 1830 c-92 -24 -148 -74 -163 -148 -4 -17 -15 -39 -25 -48 -25
-22 -24 -56 1 -79 19 -18 20 -31 20 -480 0 -449 -1 -462 -20 -480 -25 -23 -26
-67 -1 -89 11 -10 23 -31 26 -48 9 -40 61 -97 110 -119 59 -27 204 -26 262 2
52 25 89 68 102 117 6 20 20 45 31 54 26 23 25 44 -5 84 l-25 33 0 446 0 447
25 30 c30 36 31 48 4 82 -11 14 -25 42 -30 61 -14 49 -61 100 -111 119 -51 21
-150 28 -201 16z m238 -68 c49 -41 72 -104 43 -115 -7 -3 -3 -6 8 -6 13 -1 24
-9 27 -21 4 -17 0 -20 -26 -21 -29 -1 -28 -2 11 -11 69 -15 42 -20 -49 -9 -96
12 -317 16 -326 7 -11 -10 -61 -7 -69 5 -5 8 1 10 19 7 15 -3 24 -1 21 3 -3 5
6 9 20 9 14 0 26 4 26 9 0 5 -6 9 -12 8 -7 0 -24 1 -38 3 -39 5 103 17 230 20
106 2 111 3 70 13 l-45 11 42 6 c24 3 46 10 50 14 4 4 -2 25 -14 47 -23 42
-20 48 12 21z m-110 -192 c17 -4 23 -8 15 -10 -11 -1 -9 -4 5 -10 13 -5 -23
-8 -95 -8 -76 0 -103 3 -80 8 30 6 31 8 10 10 -24 2 -24 3 5 10 17 4 48 8 70
8 22 0 54 -4 70 -8z m108 -27 c-7 -2 -21 -2 -30 0 -10 3 -4 5 12 5 17 0 24 -2
18 -5z m-123 -21 c0 -8 -223 -83 -243 -82 -5 0 -7 17 -5 38 l3 37 60 6 c97 9
185 10 185 1z m180 -115 c0 -39 -5 -58 -18 -70 -10 -9 -70 -33 -133 -53 -63
-21 -117 -42 -121 -48 -11 -16 -10 -96 1 -96 6 0 46 11 90 25 79 25 81 27 81
58 0 18 4 38 9 46 13 21 31 4 31 -30 0 -29 2 -30 30 -24 l30 7 0 -66 c0 -61
-2 -66 -27 -78 -32 -15 -46 -57 -37 -110 6 -36 25 -50 39 -28 16 25 25 5 25
-54 0 -57 -3 -66 -25 -83 -16 -11 -27 -30 -29 -48 -4 -36 -39 -43 -44 -9 -2
16 -8 20 -23 17 -10 -3 -19 -9 -19 -14 0 -5 -7 -6 -15 -3 -13 5 -14 2 -5 -20
8 -21 7 -28 -5 -32 -8 -4 -13 -9 -10 -13 2 -5 -19 -9 -48 -10 -33 -1 -54 -7
-60 -16 -12 -22 -32 -18 -49 7 -15 23 -16 23 -52 5 -20 -9 -39 -17 -41 -17 -3
0 -5 27 -5 61 0 53 3 64 25 81 22 17 25 27 25 89 0 65 -1 69 -19 60 -26 -14
-31 -5 -31 54 0 39 5 56 20 70 16 14 20 31 20 77 0 55 -2 59 -20 53 -18 -6
-20 -2 -20 54 0 60 0 61 39 80 21 11 108 41 192 67 85 25 161 50 169 55 27 15
30 10 30 -44z m-4 -738 c3 -6 0 -17 -7 -24 -16 -15 -149 -29 -149 -15 0 5 26
16 58 25 31 9 62 18 67 20 18 6 24 5 31 -6z m-283 -66 c-13 -2 -35 -2 -50 0
-16 2 -5 4 22 4 28 0 40 -2 28 -4z m200 0 c-13 -2 -33 -2 -45 0 -13 2 -3 4 22
4 25 0 35 -2 23 -4z m-230 -20 c-7 -2 -19 -2 -25 0 -7 3 -2 5 12 5 14 0 19 -2
13 -5z m230 0 c-7 -2 -19 -2 -25 0 -7 3 -2 5 12 5 14 0 19 -2 13 -5z m-105
-17 c101 1 180 -2 175 -5 -12 -9 -12 -41 1 -42 6 -1 -7 -5 -29 -10 -49 -10
-235 -11 -329 -2 -58 5 -66 8 -52 19 15 11 14 13 -13 19 -16 3 -32 13 -35 21
-5 12 3 13 47 7 28 -4 134 -8 235 -7z m-88 -85 c44 -8 43 -9 -23 -10 -49 -1
-69 -5 -73 -16 -6 -16 29 -81 49 -89 9 -3 9 -5 0 -5 -29 -2 -103 87 -103 124
0 7 98 5 150 -4z"/>
<path d="M950 1012 l-85 -28 -3 -67 c-2 -37 -2 -67 0 -67 2 1 46 15 98 33 l95
32 3 63 c2 46 0 62 -10 62 -7 -1 -51 -13 -98 -28z"/>
<path d="M813 895 c0 -38 2 -53 4 -32 2 20 2 52 0 70 -2 17 -4 1 -4 -38z"/>
<path d="M853 273 c-10 -3 -13 -38 -13 -124 l0 -119 34 0 c35 0 35 0 39 53 l3
52 2 -52 2 -53 35 0 35 0 0 119 0 118 -37 7 c-44 7 -83 7 -100 -1z m64 -70
c-2 -16 -4 -5 -4 22 0 28 2 40 4 28 2 -13 2 -35 0 -50z"/>
<path d="M170 150 l0 -120 63 0 c36 0 68 5 75 12 8 8 12 46 12 104 0 114 -7
124 -91 124 l-59 0 0 -120z m77 -37 c-2 -21 -4 -4 -4 37 0 41 2 58 4 38 2 -21
2 -55 0 -75z"/>
<path d="M340 255 c0 -10 11 -15 35 -15 24 0 35 5 35 15 0 10 -11 15 -35 15
-24 0 -35 -5 -35 -15z"/>
<path d="M590 150 l0 -120 70 0 c63 0 70 2 70 20 0 11 7 20 15 20 8 0 15 -9
15 -20 0 -16 7 -20 36 -20 29 0 34 3 30 18 -3 9 -10 53 -16 97 -19 130 -16
125 -66 125 -24 0 -44 -1 -45 -2 0 -2 -9 -55 -19 -118 l-18 -115 -1 118 -1
117 -35 0 -35 0 0 -120z m157 -22 c-2 -13 -4 -3 -4 22 0 25 2 35 4 23 2 -13 2
-33 0 -45z"/>
<path d="M1170 255 c0 -10 11 -15 35 -15 24 0 35 5 35 15 0 10 -11 15 -35 15
-24 0 -35 -5 -35 -15z"/>
<path d="M1688 233 c-2 -10 -2 -58 1 -108 l6 -90 43 -3 c33 -2 42 0 42 12 0 9
-5 16 -11 16 -7 0 -10 26 -9 77 4 116 5 113 -34 113 -24 0 -35 -5 -38 -17z"/>
<path d="M340 125 l0 -95 35 0 35 0 0 95 0 95 -35 0 -35 0 0 -95z"/>
<path d="M446 204 c-9 -8 -16 -26 -16 -40 0 -20 5 -24 28 -24 l27 0 -25 -13
c-20 -10 -25 -20 -25 -52 l0 -40 68 -3 67 -3 0 85 c0 74 -3 87 -19 96 -29 15
-87 12 -105 -6z m51 -56 c-3 -7 -5 -2 -5 12 0 14 2 19 5 13 2 -7 2 -19 0 -25z
m0 -70 c-3 -8 -6 -5 -6 6 -1 11 2 17 5 13 3 -3 4 -12 1 -19z"/>
<path d="M1016 198 c-25 -35 -21 -58 12 -59 27 0 27 0 4 -11 -26 -13 -39 -54
-25 -77 7 -11 29 -17 77 -19 l66 -3 0 68 c0 95 -13 117 -72 121 -39 3 -49 -1
-62 -20z m61 -40 c-3 -8 -6 -5 -6 6 -1 11 2 17 5 13 3 -3 4 -12 1 -19z m0 -90
c-3 -7 -5 -2 -5 12 0 14 2 19 5 13 2 -7 2 -19 0 -25z"/>
<path d="M1170 125 l0 -95 38 0 37 0 -3 95 -3 95 -35 0 -34 0 0 -95z"/>
<path d="M1260 125 l0 -95 30 0 c30 0 30 0 30 60 0 49 4 62 20 72 11 7 20 22
20 34 0 19 -6 22 -50 23 l-50 1 0 -95z"/>
<path d="M1385 204 c-13 -13 -16 -33 -14 -94 l3 -76 63 -1 c35 -1 61 3 58 7
-3 5 -1 11 5 15 5 3 10 17 10 31 0 20 -5 24 -29 24 -25 0 -30 -5 -34 -27 -2
-16 -4 1 -4 37 -1 36 1 57 4 48 7 -26 63 -25 63 1 0 11 -7 27 -16 35 -21 21
-88 21 -109 0z"/>
<path d="M1532 128 l3 -93 68 -3 67 -3 0 96 0 95 -35 0 -34 0 -4 -77 -3 -78
-2 78 -2 77 -30 0 -31 0 3 -92z"/>
</g>
</svg>
