<?xml version="1.0" standalone="no"?>
<!DOCTYPE svg PUBLIC "-//W3C//DTD SVG 20010904//EN"
 "http://www.w3.org/TR/2001/REC-SVG-20010904/DTD/svg10.dtd">
<svg version="1.0" xmlns="http://www.w3.org/2000/svg"
 width="741.000000pt" height="741.000000pt" viewBox="0 0 741.000000 741.000000"
 preserveAspectRatio="xMidYMid meet">
<metadata>
Created by potrace 1.11, written by Peter Selinger 2001-2013
</metadata>
<g transform="translate(0.000000,741.000000) scale(0.100000,-0.100000)"
fill="#000000" stroke="none">
<path d="M3500 6304 c-98 -7 -278 -35 -356 -55 -85 -22 -228 -90 -319 -152
-33 -23 -101 -78 -150 -122 -50 -45 -107 -90 -128 -100 -21 -10 -43 -27 -48
-38 -16 -28 -4 -99 19 -117 25 -20 42 -53 42 -80 0 -15 9 -25 29 -33 l28 -10
1 -1894 1 -1893 -29 -15 c-20 -10 -30 -23 -30 -38 0 -12 -10 -37 -23 -56 -38
-59 -47 -76 -47 -92 0 -20 47 -69 66 -69 8 0 49 -32 91 -71 231 -212 390 -287
703 -335 88 -14 178 -18 380 -18 279 -1 396 12 570 63 141 40 308 143 438 270
40 39 90 78 110 87 20 8 44 22 54 31 27 24 23 77 -7 109 -14 15 -30 45 -37 66
-7 25 -21 44 -38 53 l-27 14 0 1893 -1 1893 31 15 c24 11 33 24 39 52 4 20 19
48 33 62 19 19 25 35 25 69 0 49 -14 67 -71 91 -20 8 -72 49 -115 91 -186 179
-384 274 -659 315 -71 11 -475 21 -575 14z m640 -53 c220 -46 328 -93 462
-200 74 -59 164 -149 156 -156 -2 -2 -38 27 -78 66 -147 138 -275 212 -426
248 -50 11 -94 21 -98 21 -17 0 -1 -18 35 -38 22 -13 39 -26 36 -28 -2 -3 -32
12 -65 32 -78 46 -103 39 -31 -9 80 -54 116 -87 102 -93 -7 -3 -13 -12 -13
-21 0 -11 -6 -10 -26 6 -25 20 -51 20 -39 0 4 -5 -1 -9 -10 -9 -11 0 -15 -6
-10 -19 5 -15 1 -18 -20 -13 -22 4 -25 1 -25 -24 0 -16 -4 -24 -8 -18 -4 6
-20 10 -36 10 -24 -1 -31 4 -36 24 -9 37 -40 39 -41 3 l-1 -28 -7 30 c-4 20
-14 31 -31 35 -14 3 -25 12 -25 20 -1 8 -7 25 -14 38 -7 13 -10 31 -8 40 4 14
6 13 12 -6 9 -28 42 -26 37 2 -6 31 -33 66 -52 66 -9 0 -31 -5 -49 -11 -31
-11 -31 -12 -25 -63 4 -28 11 -59 15 -68 5 -9 9 -33 9 -52 0 -38 24 -52 33
-18 3 9 5 0 6 -20 1 -30 -3 -38 -17 -38 -10 0 -23 -5 -30 -12 -7 -7 -12 -10
-13 -7 0 2 -2 26 -5 53 -4 62 -9 76 -29 76 -12 0 -15 -14 -16 -72 0 -74 -15
-141 -19 -88 -1 14 -3 45 -4 70 -1 33 -5 45 -16 45 -11 0 -16 -15 -20 -57 -3
-31 -8 -60 -12 -64 -15 -14 -19 25 -9 77 6 33 6 58 0 64 -16 16 -40 -19 -45
-66 -10 -88 -12 -91 -47 -87 -31 3 -32 4 -29 48 4 62 29 146 58 199 13 24 24
45 24 47 0 2 -18 4 -39 4 -29 0 -44 -6 -58 -23 -17 -22 -55 -100 -67 -139 -3
-11 -15 -18 -31 -18 -23 0 -25 2 -14 23 6 12 22 36 35 54 17 23 21 34 12 39
-12 8 -68 -51 -68 -73 0 -7 -10 -17 -21 -24 -40 -21 -55 39 -17 65 25 18 19
31 -11 21 -20 -6 -131 -139 -131 -157 0 -13 -17 -9 -34 7 -22 23 -32 19 -63
-25 -15 -22 -34 -42 -41 -45 -15 -6 -10 5 25 51 40 54 26 74 -21 28 -14 -15
-26 -22 -26 -15 0 6 -7 11 -15 11 -8 0 -15 -4 -15 -10 0 -5 5 -10 10 -10 6 0
10 -7 10 -16 0 -11 -5 -14 -16 -10 -23 9 -94 -12 -101 -30 -4 -10 -22 -14 -63
-14 -50 0 -58 3 -63 21 -3 12 -10 18 -16 14 -6 -3 -11 -1 -11 4 0 18 -21 12
-52 -15 -30 -24 -89 -32 -78 -9 3 6 14 9 25 7 13 -1 43 19 84 58 35 33 67 58
70 55 3 -4 1 -9 -4 -13 -28 -20 -37 -42 -25 -57 15 -18 31 -20 24 -2 -2 7 9
26 26 42 35 33 39 49 10 40 -24 -8 -26 3 -3 20 12 9 22 10 34 2 12 -8 24 -5
49 13 30 21 31 24 14 30 -16 6 -12 11 26 35 55 34 55 34 47 41 -13 14 -163
-77 -242 -147 -95 -85 -110 -97 -115 -93 -2 3 16 23 40 45 147 130 317 232
346 208 8 -6 18 -8 22 -4 4 4 1 10 -7 13 -36 12 203 73 339 85 25 3 173 3 330
2 249 -2 298 -5 390 -24z m-593 -163 c-3 -8 -6 -5 -6 6 -1 11 2 17 5 13 3 -3
4 -12 1 -19z m-26 -87 c-6 -11 -11 -38 -11 -60 0 -22 -4 -43 -10 -46 -14 -8
-13 60 1 104 22 66 22 68 26 44 3 -12 -1 -31 -6 -42z m407 4 c2 -26 -2 -45 -8
-45 -5 0 -10 20 -10 45 0 58 14 58 18 0z m385 -45 c4 -8 14 -25 23 -37 13 -19
14 -23 2 -23 -7 0 -22 16 -32 35 -21 38 -49 46 -65 18 -9 -16 -10 -16 -11 5 0
16 6 22 21 22 l21 0 -22 38 -21 37 39 -40 c21 -22 41 -47 45 -55z m-955 -24
c2 -16 -1 -33 -7 -39 -8 -8 -11 -3 -11 15 0 15 -4 30 -10 33 -17 10 -11 27 8
23 10 -2 18 -14 20 -32z m49 -33 c-4 -17 -4 -17 -12 0 -4 9 -4 25 0 35 8 16 8
16 12 0 3 -10 3 -26 0 -35z m633 37 c0 -5 -2 -10 -4 -10 -3 0 -8 5 -11 10 -3
6 -1 10 4 10 6 0 11 -4 11 -10z m435 -10 c10 -11 16 -20 13 -20 -3 0 -13 9
-23 20 -10 11 -16 20 -13 20 3 0 13 -9 23 -20z m-362 -10 c3 -11 1 -20 -4 -20
-5 0 -9 9 -9 20 0 11 2 20 4 20 2 0 6 -9 9 -20z m-906 -12 c-3 -8 -6 -5 -6 6
-1 11 2 17 5 13 3 -3 4 -12 1 -19z m-172 -7 c3 -5 1 -12 -5 -16 -5 -3 -10 1
-10 9 0 18 6 21 15 7z m225 -1 c0 -5 -5 -10 -11 -10 -5 0 -7 5 -4 10 3 6 8 10
11 10 2 0 4 -4 4 -10z m1499 -46 c2 -2 -291 -4 -652 -4 -360 0 -662 -3 -671
-6 -52 -20 26 -24 455 -24 437 0 473 -1 485 -17 13 -17 15 -17 28 0 7 9 17 17
21 17 4 0 14 -8 21 -17 13 -17 15 -17 25 0 8 13 14 15 23 7 8 -5 22 -9 32 -9
46 5 63 -1 61 -21 -1 -19 -8 -20 -107 -20 -375 0 -1157 -12 -1220 -18 -58 -5
-22 -8 165 -12 l240 -6 -303 -2 c-167 -1 -301 2 -298 7 7 10 -164 21 -330 21
-68 0 -125 4 -128 8 -3 5 6 20 19 34 17 18 31 24 48 21 14 -3 28 0 31 6 9 14
282 15 291 1 3 -5 0 -10 -7 -10 -10 0 -10 -2 -1 -8 23 -14 98 -8 98 9 0 7 6
14 13 14 6 0 12 -4 11 -9 -2 -21 26 -24 44 -5 10 10 31 19 47 19 17 0 30 4 30
10 0 5 -47 11 -107 13 -91 2 -83 3 47 5 99 1 150 -2 140 -8 -12 -8 -12 -10 2
-15 23 -9 59 -2 56 10 -2 7 226 12 662 15 611 5 717 4 729 -6z m-2169 -1 c-8
-3 -24 -10 -35 -16 -18 -9 -19 -9 -6 6 7 10 23 17 35 16 14 0 16 -2 6 -6z
m2272 -5 c8 -7 18 -28 22 -46 5 -27 1 -38 -19 -58 -22 -22 -32 -24 -102 -22
l-78 1 76 6 c88 7 109 20 109 68 0 29 -5 36 -32 48 -25 11 -28 14 -12 15 11 0
27 -6 36 -12z m-2312 -76 c0 -10 5 -23 12 -30 7 -7 8 -12 2 -12 -16 0 -34 22
-34 42 0 10 5 18 10 18 6 0 10 -8 10 -18z m228 -49 c-21 -2 -55 -2 -75 0 -21
2 -4 4 37 4 41 0 58 -2 38 -4z m1455 0 c-29 -2 -78 -2 -110 0 -32 2 -8 3 52 3
61 0 87 -1 58 -3z m-627 -48 c-4 -13 8 -15 78 -15 65 0 85 3 90 15 4 12 23 15
93 14 81 -2 83 -2 31 -8 -59 -6 -90 -21 -45 -21 15 0 27 -3 27 -8 0 -4 -281
-7 -625 -7 -541 0 -627 2 -635 15 -7 11 -4 17 8 21 9 3 235 7 501 8 427 1 483
-1 477 -14z m407 8 c-7 -2 -19 -2 -25 0 -7 3 -2 5 12 5 14 0 19 -2 13 -5z
m144 -7 c6 -11 49 -15 211 -18 112 -1 209 -6 215 -10 7 -5 -115 -8 -270 -7
-159 1 -280 5 -277 10 3 5 12 9 19 9 9 0 12 6 9 15 -8 21 81 22 93 1z m-1467
-360 c0 -255 -2 -306 -15 -316 -13 -10 -15 27 -17 299 -2 201 1 313 7 315 6 3
13 5 18 5 4 1 7 -136 7 -303z m72 257 c2 -35 7 -48 18 -48 10 0 16 13 18 43 4
53 22 55 22 2 0 -28 4 -40 14 -40 10 0 16 14 18 43 2 29 8 42 18 42 11 0 16
-13 18 -43 3 -34 7 -43 20 -40 13 3 17 14 17 43 0 30 4 39 15 37 8 -2 17 -8
18 -13 5 -12 32 -12 32 1 0 6 7 10 15 10 8 0 15 -7 15 -15 0 -8 7 -15 15 -15
8 0 15 6 15 14 0 21 19 30 35 16 8 -7 22 -10 30 -6 9 3 25 0 36 -7 17 -10 22
-9 30 6 14 24 28 21 39 -8 6 -16 15 -23 24 -19 8 3 13 11 10 19 -8 20 24 26
36 7 9 -16 11 -16 21 1 9 15 26 17 130 16 65 0 119 -2 119 -4 0 -2 -38 -23
-83 -48 -150 -81 -319 -197 -616 -423 -24 -19 -47 -34 -51 -34 -4 0 -8 32 -9
72 -2 80 -9 118 -22 118 -10 0 -14 -55 -10 -153 3 -64 -7 -97 -30 -97 -6 0 -6
547 0 568 1 1 5 2 10 2 6 0 11 -21 13 -47z m1852 38 c4 -5 3 -11 -1 -13 -10
-4 0 -324 10 -335 5 -4 16 3 26 16 15 19 19 21 24 8 3 -9 -1 -21 -10 -29 -9
-7 -24 -26 -34 -41 -22 -37 -159 -187 -170 -187 -5 0 -57 -37 -116 -81 l-108
-81 -6 28 c-4 16 -7 46 -8 67 -1 26 -6 37 -16 37 -23 0 -21 -115 3 -130 15 -9
15 -11 2 -20 -8 -6 -81 -52 -162 -103 -589 -369 -944 -620 -1221 -861 -37 -32
-69 -57 -71 -55 -2 2 -6 18 -8 34 -2 25 1 31 20 33 22 3 22 6 22 138 0 110 -3
134 -14 134 -8 0 -18 -9 -21 -20 -14 -45 -21 -13 -23 108 -1 70 -5 146 -8 170
-7 53 0 62 116 145 47 33 135 97 195 143 189 141 605 417 820 544 50 29 122
75 162 102 40 26 75 48 78 48 3 0 35 18 71 40 36 22 68 40 69 40 2 0 7 -25 10
-55 5 -39 12 -55 22 -55 12 0 14 13 12 70 l-4 70 50 31 c102 64 115 69 202 69
45 0 84 -4 87 -9z m54 -66 c2 -38 -2 -73 -8 -79 -7 -7 -10 6 -10 41 0 29 -4
63 -9 76 -10 26 -5 40 13 34 6 -2 12 -34 14 -72z m87 -81 c0 -155 -2 -184 -15
-184 -8 0 -22 319 -14 332 3 5 11 7 17 5 8 -3 12 -49 12 -153z m-5 -966 c-1
-79 -4 -156 -5 -173 -2 -16 -4 -83 -4 -147 -1 -72 -5 -118 -11 -118 -15 0 -13
563 2 578 6 6 14 10 16 7 2 -2 3 -68 2 -147z m-74 30 c-4 -24 -7 -150 -7 -281
-1 -130 -5 -240 -10 -243 -10 -6 -12 549 -2 559 17 18 25 4 19 -35z m-68 -286
c2 -185 0 -233 -10 -230 -7 3 -13 16 -14 29 -1 50 -4 59 -19 59 -12 0 -15 -17
-15 -91 0 -86 1 -90 20 -84 35 11 23 -20 -23 -61 -83 -75 -309 -234 -547 -385
-470 -298 -862 -568 -992 -682 -138 -123 -253 -215 -260 -208 -8 7 -11 130 -9
381 l1 176 106 107 c59 59 111 107 115 107 5 0 9 -13 9 -30 0 -23 4 -30 20
-30 16 0 20 7 20 35 0 25 -4 35 -16 35 -23 0 -11 13 83 92 124 105 207 167
356 265 73 47 177 118 232 158 118 84 150 104 355 226 181 107 359 225 468
309 120 94 116 100 120 -178z m-1914 -68 c4 -146 9 -291 12 -322 4 -41 1 -63
-10 -77 -8 -11 -17 -18 -19 -15 -4 4 -12 645 -8 673 1 4 5 7 9 7 5 0 12 -120
16 -266z m1316 -739 c-7 -9 -15 -13 -19 -10 -3 3 1 10 9 15 21 14 24 12 10 -5z
m732 -370 c-3 -242 -5 -275 -16 -264 -9 9 -10 565 -1 579 17 26 21 -43 17
-315z m-74 60 c-2 -102 -6 -185 -11 -185 -4 0 -10 83 -13 185 -5 166 -4 185
10 185 15 0 16 -20 14 -185z m-60 -165 l-1 -299 -36 -39 c-80 -84 -131 -113
-131 -73 0 21 -17 31 -37 23 -19 -6 -16 -50 4 -61 10 -5 16 -11 13 -14 -40
-34 -225 -160 -370 -252 -293 -186 -602 -390 -680 -447 -23 -17 -45 -18 -270
-16 l-245 3 -3 38 c-5 53 -32 51 -32 -3 0 -40 0 -40 -37 -40 l-38 0 2 57 c2
77 2 75 13 68 6 -3 10 -29 10 -56 0 -69 24 -61 28 9 2 42 0 52 -12 52 -9 0
-16 4 -16 8 0 23 293 293 477 440 86 69 676 460 854 567 90 54 192 117 226
141 34 24 64 40 66 36 2 -4 5 -108 6 -231 1 -124 4 -228 7 -233 3 -5 12 -4 20
3 11 9 14 55 14 238 0 151 -4 231 -11 238 -8 8 4 22 45 52 30 23 59 41 65 41
5 0 9 -35 8 -82 -2 -68 1 -83 13 -83 11 0 16 16 21 65 3 36 9 75 13 88 6 18 4
22 -13 22 -12 0 -21 4 -21 10 0 9 28 29 42 30 4 0 7 -135 6 -300z m-1918 170
c0 -5 -4 -10 -10 -10 -5 0 -10 5 -10 10 0 6 5 10 10 10 6 0 10 -4 10 -10z m0
-345 c0 -177 -4 -275 -10 -275 -6 0 -10 98 -10 275 0 177 4 275 10 275 6 0 10
-98 10 -275z m2051 -825 c1 -189 2 -177 -13 -162 -9 9 -14 56 -15 150 -2 141
2 175 18 170 5 -2 10 -70 10 -158z m-71 -41 c0 -92 -3 -120 -12 -117 -9 3 -14
39 -16 121 -2 100 0 117 13 117 13 0 15 -19 15 -121z m-69 39 c0 -18 1 -66 2
-105 l2 -73 -150 0 -150 1 29 23 c15 13 68 51 117 85 l89 62 0 -31 c0 -21 5
-30 16 -30 14 0 16 7 11 39 -4 36 5 61 25 61 4 0 8 -15 9 -32z m-1906 -165
c-2 -7 -11 -13 -18 -13 -11 0 -13 11 -10 48 3 26 7 54 10 62 7 18 25 -79 18
-97z m1423 -43 c220 0 331 -3 327 -10 -4 -6 -95 -10 -240 -10 -153 0 -251 -4
-280 -12 -36 -10 -50 -10 -65 0 -24 15 -60 16 -60 2 0 -5 -18 -10 -41 -10 -24
0 -38 4 -34 10 4 6 -5 10 -20 10 -15 0 -24 -4 -20 -10 9 -14 -31 -12 -55 2
-16 10 -24 10 -40 0 -23 -14 -850 -18 -865 -3 -6 5 -27 12 -49 15 -33 6 -38 5
-33 -8 5 -12 0 -16 -20 -16 -25 0 -26 1 -8 20 23 25 25 25 645 23 289 -2 675
-3 858 -3z m462 -5 c-8 -9 -20 -13 -29 -9 -9 4 -29 6 -46 5 -23 -1 -26 1 -15
9 8 5 35 10 59 10 38 0 42 -2 31 -15z m135 -3 c-8 -8 -97 -10 -110 -3 -5 3 6
8 25 11 39 6 94 1 85 -8z m92 -28 c-3 -3 -12 -4 -19 -1 -8 3 -5 6 6 6 11 1 17
-2 13 -5z m-337 -44 c0 -6 -9 -10 -19 -10 -11 0 -21 -6 -24 -12 -3 -10 -7 -10
-18 -1 -37 30 -136 0 -108 -33 10 -12 -54 -14 -435 -14 -245 0 -446 -4 -446
-8 0 -5 10 -14 23 -20 18 -9 12 -11 -38 -10 -33 0 -52 2 -42 5 26 7 10 23 -23
23 -33 0 -49 -16 -23 -23 10 -3 -117 -4 -282 -4 l-300 2 248 2 c153 2 247 7
247 13 0 9 -15 14 -34 11 -23 -4 -48 12 -43 29 2 10 1 24 -4 31 -11 18 -32 -2
-34 -33 -1 -13 -9 -24 -18 -26 -13 -3 -15 3 -10 32 6 39 -7 47 -33 21 -9 -8
-20 -15 -25 -15 -5 0 -9 7 -9 15 0 16 -20 19 -57 9 -14 -4 -23 -14 -23 -25 0
-14 7 -19 30 -19 17 0 30 -4 30 -10 0 -14 -287 -13 -295 0 -4 6 -20 9 -37 8
-20 -2 -33 3 -40 15 -6 12 -16 16 -29 12 -11 -4 -19 -2 -19 4 0 6 -7 11 -15
11 -18 0 -20 16 -2 23 24 10 1907 7 1907 -3z m53 -10 c3 -13 0 -20 -9 -20 -8
0 -14 2 -14 4 0 2 -3 11 -6 20 -4 10 -1 16 9 16 8 0 17 -9 20 -20z m335 3 c11
-10 23 -30 26 -44 5 -21 1 -30 -19 -43 -13 -9 -35 -16 -47 -15 -18 0 -15 3 12
12 29 10 36 18 38 43 3 27 -1 33 -29 44 -24 10 -38 11 -62 2 -16 -6 -34 -9
-39 -6 -5 3 -14 1 -21 -5 -8 -6 -26 -7 -52 -1 -55 13 -65 12 -65 -5 0 -24 -24
-17 -37 10 l-11 25 143 0 c122 0 146 -3 163 -17z m-1878 -33 c0 -5 -2 -10 -4
-10 -3 0 -8 5 -11 10 -3 6 -1 10 4 10 6 0 11 -4 11 -10z m1380 -10 c0 -11 -4
-20 -9 -20 -5 0 -7 9 -4 20 3 11 7 20 9 20 2 0 4 -9 4 -20z m127 -2 c-3 -8 -6
-5 -6 6 -1 11 2 17 5 13 3 -3 4 -12 1 -19z m-1902 -56 c-10 -2 -25 3 -33 12
-15 14 -13 15 17 3 23 -8 28 -13 16 -15z m2023 8 c97 0 173 -3 169 -6 -3 -3
-50 -6 -104 -6 -1066 5 -1184 7 -923 13 146 3 359 4 474 3 115 -2 288 -4 384
-4z m-1748 -50 c0 -5 12 -10 28 -9 l27 1 -25 8 c-25 8 -25 8 4 9 16 1 34 -6
41 -15 8 -11 29 -17 63 -19 57 -2 75 -11 52 -25 -12 -7 -12 -12 -3 -21 10 -10
14 -9 19 5 6 14 9 13 32 -9 42 -43 60 -23 22 25 -25 32 -25 44 0 23 11 -10 20
-23 20 -30 0 -7 4 -13 8 -13 5 0 15 -12 22 -26 12 -22 12 -27 0 -34 -12 -8
-11 -13 7 -30 23 -21 43 -26 43 -11 0 5 14 -3 30 -17 17 -15 30 -31 30 -37 0
-25 67 -72 140 -98 28 -10 -11 -7 -100 7 -100 17 -206 55 -268 97 -23 16 -46
29 -51 29 -4 0 -18 11 -31 25 -23 24 -60 34 -60 16 0 -5 16 -19 36 -31 19 -12
33 -24 30 -27 -17 -17 -246 166 -246 196 0 8 6 6 16 -4 10 -10 25 -14 38 -11
12 3 27 6 34 6 6 0 12 7 12 15 0 8 7 15 15 15 8 0 15 -4 15 -10z m764 -6 c3
-9 6 -31 6 -50 0 -41 26 -97 43 -91 7 2 10 18 8 43 -8 67 -6 93 4 94 6 0 12
-26 15 -57 4 -43 9 -58 20 -58 11 0 15 13 16 50 3 92 3 93 15 72 12 -20 8
-141 -5 -169 -7 -16 -4 -17 23 -12 24 5 31 3 31 -8 0 -11 -7 -14 -24 -11 -13
3 -26 0 -30 -5 -11 -18 6 -42 30 -42 13 0 24 -1 24 -2 0 -2 -7 -21 -14 -43
l-14 -40 -74 -3 c-105 -5 -238 7 -238 21 0 7 -9 18 -21 25 -12 7 -19 16 -16
19 3 3 19 -4 35 -16 36 -25 48 -26 56 -5 4 11 1 14 -12 10 -12 -4 -26 1 -37
14 -13 15 -22 17 -36 9 -14 -7 -28 -5 -51 7 -35 18 -188 167 -188 183 0 5 9
11 20 14 13 3 21 -1 25 -14 4 -10 11 -19 16 -19 5 0 9 -6 9 -12 0 -21 95 -118
115 -118 17 0 16 2 -4 24 -16 17 -20 30 -15 50 7 30 8 30 36 15 14 -7 18 -17
14 -32 -4 -17 2 -26 25 -40 17 -9 33 -26 36 -37 5 -20 13 -24 44 -21 26 3 44
-26 29 -44 -8 -9 -8 -15 -2 -15 6 0 12 6 14 12 3 9 9 8 22 -5 22 -21 66 -23
66 -2 0 8 5 15 10 15 18 0 10 18 -23 54 -45 48 -91 213 -67 241 16 20 56 19
64 -1z m487 -15 c-9 -22 -10 -22 -10 -3 -1 11 2 24 6 27 12 12 14 0 4 -24z
m229 2 c-5 -11 -14 -23 -20 -26 -5 -3 -7 -12 -3 -20 3 -8 0 -15 -6 -15 -6 0
-27 -17 -47 -37 -21 -23 -29 -28 -20 -13 20 31 20 50 1 50 -8 0 -15 7 -15 15
0 14 3 13 25 -1 14 -9 27 -15 29 -13 1 2 10 21 20 42 9 20 24 37 32 37 11 0
12 -4 4 -19z m-980 -22 c0 -11 -7 -22 -15 -26 -23 -8 -27 1 -14 30 13 29 29
27 29 -4z m153 -16 c3 -21 9 -53 13 -72 4 -22 3 -32 -4 -28 -10 7 -18 39 -29
111 -3 25 -2 36 5 32 5 -3 12 -23 15 -43z m977 44 c0 -2 -10 -12 -22 -23 l-23
-19 19 23 c18 21 26 27 26 19z m180 -79 c-129 -120 -235 -182 -390 -226 -150
-43 -244 -54 -505 -57 l-250 -3 205 8 c309 12 561 54 680 115 80 40 185 115
260 183 36 33 67 58 70 55 3 -3 -29 -36 -70 -75z m-1885 -17 c92 -84 203 -147
338 -191 76 -24 84 -39 12 -21 -71 18 -182 72 -272 134 -79 54 -183 145 -183
161 0 8 40 -23 105 -83z m1255 69 c0 -5 -5 -10 -11 -10 -5 0 -7 5 -4 10 3 6 8
10 11 10 2 0 4 -4 4 -10z m-186 -38 c5 -3 1 -8 -10 -12 -12 -4 -21 -20 -25
-41 -6 -30 -7 -27 -8 18 -1 54 3 57 43 35z m-369 -72 c7 -19 17 -47 23 -62 6
-16 10 -28 7 -28 -9 0 -54 54 -75 92 l-22 40 27 -4 c20 -2 30 -11 40 -38z
m595 20 c6 -11 17 -20 25 -20 8 0 15 -4 15 -10 0 -5 -13 -7 -29 -4 -23 5 -32
2 -41 -15 -14 -27 -5 -41 26 -41 13 0 24 -4 24 -9 0 -14 -18 -23 -24 -12 -3 4
-19 11 -36 14 -22 5 -28 10 -23 23 4 12 1 15 -12 13 -26 -6 -30 -26 -6 -34 31
-9 26 -34 -5 -32 -16 1 -29 -4 -32 -13 -5 -13 -3 -13 12 -1 9 8 19 11 23 7 8
-7 -53 -66 -68 -66 -14 0 -14 2 24 77 l16 32 -27 -3 c-15 -2 -19 -1 -9 1 9 2
17 10 17 17 0 13 66 46 92 46 26 0 30 30 5 40 l-22 9 22 0 c13 1 27 -8 33 -19z
m-870 -10 c0 -5 -2 -10 -4 -10 -3 0 -8 5 -11 10 -3 6 -1 10 4 10 6 0 11 -4 11
-10z m730 -50 c0 -5 -4 -10 -9 -10 -6 0 -13 5 -16 10 -3 6 1 10 9 10 9 0 16
-4 16 -10z m200 -4 c0 -8 8 -17 18 -19 9 -3 2 -5 -15 -6 -31 -1 -44 15 -26 32
11 12 23 8 23 -7z m87 -17 c-17 -10 -50 -1 -42 11 2 4 16 5 31 2 21 -4 23 -7
11 -13z m-899 -139 c47 -14 -7 -10 -73 5 l-60 14 53 -5 c29 -3 65 -10 80 -14z
m105 -17 c-13 -2 -35 -2 -50 0 -16 2 -5 4 22 4 28 0 40 -2 28 -4z"/>
<path d="M3991 6191 c32 -37 65 -58 75 -49 9 10 -69 88 -88 88 -18 0 -17 -4
13 -39z"/>
<path d="M3692 6180 c-17 -27 -15 -50 3 -50 14 0 35 37 35 61 0 16 -25 9 -38
-11z"/>
<path d="M4050 6195 c0 -14 67 -64 85 -64 17 0 14 5 -17 34 -33 30 -68 46 -68
30z"/>
<path d="M3036 6135 c-10 -8 -24 -16 -30 -18 -6 -2 -8 -8 -4 -12 6 -7 78 31
78 41 0 9 -26 3 -44 -11z"/>
<path d="M3750 6125 c0 -10 7 -15 18 -13 21 4 19 22 -2 26 -10 2 -16 -3 -16
-13z"/>
<path d="M4060 6095 c0 -18 24 -30 39 -21 16 10 1 36 -20 36 -10 0 -19 -7 -19
-15z"/>
<path d="M3665 6089 c-10 -15 1 -23 20 -15 9 3 13 10 10 16 -8 13 -22 13 -30
-1z"/>
<path d="M3180 6055 c-13 -14 -20 -28 -17 -32 8 -7 57 35 57 49 0 15 -16 8
-40 -17z"/>
<path d="M4020 6040 c0 -5 7 -10 15 -10 8 0 15 5 15 10 0 6 -7 10 -15 10 -8 0
-15 -4 -15 -10z"/>
<path d="M2948 5803 c7 -3 16 -2 19 1 4 3 -2 6 -13 5 -11 0 -14 -3 -6 -6z"/>
<path d="M4315 5800 c3 -5 10 -10 16 -10 5 0 9 5 9 10 0 6 -7 10 -16 10 -8 0
-12 -4 -9 -10z"/>
<path d="M3648 5773 c122 -2 322 -2 445 0 122 1 22 2 -223 2 -245 0 -345 -1
-222 -2z"/>
<path d="M4373 5773 c26 -2 67 -2 90 0 23 2 2 3 -48 3 -49 0 -68 -1 -42 -3z"/>
<path d="M4538 5773 c7 -3 16 -2 19 1 4 3 -2 6 -13 5 -11 0 -14 -3 -6 -6z"/>
<path d="M3360 5590 c0 -5 5 -10 10 -10 6 0 10 5 10 10 0 6 -4 10 -10 10 -5 0
-10 -4 -10 -10z"/>
<path d="M3415 5590 c3 -5 10 -10 16 -10 5 0 9 5 9 10 0 6 -7 10 -16 10 -8 0
-12 -4 -9 -10z"/>
<path d="M3006 5529 c-3 -8 -7 -32 -8 -54 -2 -30 1 -40 12 -40 11 0 16 13 18
44 3 44 -12 79 -22 50z"/>
<path d="M2820 5470 c0 -11 6 -20 13 -20 19 0 27 10 20 26 -8 21 -33 17 -33
-6z"/>
<path d="M2769 5478 c0 -1 -2 -24 -4 -50 -3 -53 8 -79 25 -62 15 15 9 106 -7
112 -7 2 -13 2 -14 0z"/>
<path d="M2827 5393 c-4 -3 -7 -12 -7 -20 0 -15 26 -18 34 -4 7 11 -18 33 -27
24z"/>
<path d="M2824 5295 c-4 -9 -2 -21 4 -27 15 -15 44 -1 40 19 -4 23 -36 29 -44
8z"/>
<path d="M4475 5590 c-4 -6 -9 -38 -12 -71 -5 -55 -4 -59 16 -59 19 0 21 5 21
58 0 60 -12 94 -25 72z"/>
<path d="M4540 5496 c0 -84 3 -106 14 -106 18 0 26 32 25 95 -2 67 -11 107
-26 113 -10 3 -13 -22 -13 -102z"/>
<path d="M4395 5559 c-7 -33 5 -56 24 -45 6 4 11 23 11 42 0 44 -26 46 -35 3z"/>
<path d="M4320 5491 c0 -41 18 -83 33 -78 16 5 20 31 12 73 -4 25 -11 34 -25
34 -15 0 -20 -7 -20 -29z"/>
<path d="M4400 5450 c0 -15 5 -20 18 -18 9 2 17 10 17 18 0 8 -8 16 -17 18
-13 2 -18 -3 -18 -18z"/>
<path d="M4197 5433 c-13 -12 -7 -43 8 -43 9 0 15 9 15 25 0 24 -10 32 -23 18z"/>
<path d="M4476 5433 c-11 -11 -6 -23 9 -23 8 0 15 4 15 9 0 13 -16 22 -24 14z"/>
<path d="M4115 5398 c-9 -24 -1 -143 10 -143 13 0 19 135 6 148 -7 7 -12 5
-16 -5z"/>
<path d="M4030 5289 c0 -33 3 -40 18 -37 12 2 18 14 20 41 3 32 0 37 -17 37
-18 0 -21 -6 -21 -41z"/>
<path d="M4327 5323 c-3 -7 -2 -73 2 -103 0 -5 10 -10 21 -10 17 0 20 7 20 44
0 24 -3 51 -6 60 -6 16 -30 22 -37 9z"/>
<path d="M3958 5288 c-7 -21 4 -59 16 -55 18 6 20 67 2 67 -8 0 -16 -5 -18
-12z"/>
<path d="M4187 5294 c-4 -4 -7 -58 -7 -121 0 -107 1 -113 20 -113 20 0 21 5
18 117 -3 108 -11 137 -31 117z"/>
<path d="M4540 5281 c0 -24 18 -37 31 -24 13 13 1 43 -17 43 -8 0 -14 -9 -14
-19z"/>
<path d="M3892 5203 c2 -26 8 -38 18 -38 10 0 16 12 18 38 3 32 0 37 -18 37
-18 0 -21 -5 -18 -37z"/>
<path d="M4260 5193 c0 -10 -3 -35 -6 -55 -6 -34 -4 -38 15 -38 19 0 21 6 21
55 0 42 -3 55 -15 55 -8 0 -15 -8 -15 -17z"/>
<path d="M4540 5190 c0 -11 7 -20 15 -20 8 0 15 9 15 20 0 11 -7 20 -15 20 -8
0 -15 -9 -15 -20z"/>
<path d="M4110 5130 c0 -38 4 -50 15 -50 11 0 15 12 15 50 0 38 -4 50 -15 50
-11 0 -15 -12 -15 -50z"/>
<path d="M4411 5146 c-17 -20 -7 -110 12 -114 11 -2 17 3 18 15 0 10 1 37 3
60 2 44 -13 63 -33 39z"/>
<path d="M4477 5144 c-10 -11 -8 -64 2 -64 14 0 23 37 14 55 -5 9 -12 12 -16
9z"/>
<path d="M4337 5093 c-10 -9 -9 -113 1 -113 17 0 32 26 32 56 0 52 -14 76 -33
57z"/>
<path d="M4040 5064 c-6 -15 -8 -75 -6 -138 5 -105 6 -111 27 -114 22 -4 22
-2 16 74 -4 42 -7 106 -7 141 0 66 -13 82 -30 37z"/>
<path d="M4257 5063 c-4 -3 -7 -35 -7 -70 0 -48 4 -65 15 -70 21 -7 25 -2 32
40 11 69 -13 128 -40 100z"/>
<path d="M4110 4920 c0 -73 2 -80 20 -80 18 0 20 7 20 58 0 71 -8 102 -26 102
-11 0 -14 -19 -14 -80z"/>
<path d="M2750 4442 c0 -34 7 -43 26 -35 8 3 14 18 14 34 0 22 -5 29 -20 29
-15 0 -20 -7 -20 -28z"/>
<path d="M2764 4317 c-11 -29 0 -102 16 -102 19 0 22 106 3 112 -7 3 -16 -2
-19 -10z"/>
<path d="M4550 4370 c0 -72 2 -81 18 -78 13 3 17 14 17 53 1 61 -7 97 -23 103
-9 3 -12 -19 -12 -78z"/>
<path d="M4490 4256 c0 -69 0 -129 -1 -133 0 -5 7 -9 16 -11 14 -3 15 12 13
129 -2 95 -7 134 -15 137 -10 3 -13 -26 -13 -122z"/>
<path d="M4430 4306 c0 -55 13 -77 32 -58 15 15 0 112 -18 112 -10 0 -14 -14
-14 -54z"/>
<path d="M4370 4285 c0 -16 6 -25 15 -25 9 0 15 9 15 25 0 16 -6 25 -15 25 -9
0 -15 -9 -15 -25z"/>
<path d="M4297 4254 c-4 -4 -7 -54 -7 -111 0 -94 2 -104 18 -101 15 3 17 16
17 107 0 97 -8 125 -28 105z"/>
<path d="M4560 4210 c0 -13 7 -20 20 -20 13 0 20 7 20 20 0 13 -7 20 -20 20
-13 0 -20 -7 -20 -20z"/>
<path d="M4370 4151 c0 -63 14 -88 28 -49 13 34 3 108 -14 108 -10 0 -14 -15
-14 -59z"/>
<path d="M4208 4120 c-4 -70 -1 -80 18 -80 30 0 33 132 2 138 -13 3 -17 -8
-20 -58z"/>
<path d="M4143 4144 c-6 -17 4 -134 12 -143 15 -14 23 22 18 87 -5 69 -17 90
-30 56z"/>
<path d="M4427 4093 c-4 -3 -7 -19 -7 -35 0 -21 5 -28 20 -28 16 0 20 7 20 35
0 33 -16 46 -33 28z"/>
<path d="M4020 4030 c0 -37 4 -50 14 -50 22 0 27 15 20 59 -10 61 -34 54 -34
-9z"/>
<path d="M4490 3971 c0 -87 10 -115 32 -93 15 15 -1 182 -18 182 -11 0 -14
-21 -14 -89z"/>
<path d="M4152 3903 c2 -55 6 -68 21 -71 15 -3 17 5 17 67 0 65 -2 71 -20 71
-19 0 -21 -5 -18 -67z"/>
<path d="M4297 3963 c-4 -3 -7 -55 -7 -115 0 -102 1 -108 21 -108 19 0 20 5
18 103 -2 121 -8 144 -32 120z"/>
<path d="M4430 3909 c0 -69 -14 -71 -25 -4 -7 50 -30 59 -29 12 2 -122 4 -127
24 -127 15 0 20 7 20 25 0 22 3 25 25 19 25 -6 25 -6 25 65 0 64 -2 71 -20 71
-18 0 -20 -7 -20 -61z"/>
<path d="M4222 3743 c2 -37 7 -49 21 -51 16 -3 18 3 15 45 -2 37 -7 49 -21 51
-16 3 -18 -3 -15 -45z"/>
<path d="M4150 3730 c0 -11 7 -20 15 -20 8 0 15 9 15 20 0 11 -7 20 -15 20 -8
0 -15 -9 -15 -20z"/>
<path d="M2772 3118 c2 -21 8 -33 18 -33 10 0 16 12 18 33 3 27 0 32 -18 32
-18 0 -21 -5 -18 -32z"/>
<path d="M2836 3013 c-10 -10 -7 -177 4 -193 15 -24 20 -7 27 92 5 80 3 96
-10 101 -8 3 -18 3 -21 0z"/>
<path d="M2766 2925 c-8 -30 3 -105 15 -105 5 0 9 29 9 65 0 65 -12 86 -24 40z"/>
<path d="M2985 2880 c-14 -22 -13 -51 1 -57 23 -8 37 12 30 41 -7 27 -20 34
-31 16z"/>
<path d="M2767 2783 c-10 -9 -8 -116 2 -132 18 -28 31 1 31 70 0 51 -4 69 -13
69 -8 0 -17 -3 -20 -7z"/>
<path d="M2827 2754 c-12 -12 -8 -42 6 -47 24 -9 44 10 31 30 -12 20 -27 26
-37 17z"/>
<path d="M4497 3164 c-4 -4 -7 -133 -7 -286 0 -271 0 -278 20 -278 15 0 20 7
20 24 0 18 6 25 23 28 16 2 23 11 25 32 4 35 -11 54 -31 37 -12 -10 -15 21
-19 209 -4 202 -11 254 -31 234z"/>
<path d="M4318 2848 c-4 -267 -1 -338 17 -338 24 0 27 36 21 283 -5 202 -8
243 -20 245 -13 3 -16 -26 -18 -190z"/>
<path d="M4544 2987 c-2 -7 -3 -60 -2 -118 4 -144 22 -135 26 14 2 78 -1 117
-8 117 -6 0 -13 -6 -16 -13z"/>
<path d="M4236 2925 c-8 -50 -2 -68 22 -63 28 5 26 108 -3 108 -8 0 -15 -18
-19 -45z"/>
<path d="M4220 2714 c0 -52 2 -55 22 -52 20 3 22 8 19 48 -3 52 -7 60 -27 60
-10 0 -14 -14 -14 -56z"/>
<path d="M4227 2543 c-10 -9 -8 -86 2 -102 16 -26 36 -6 38 40 2 52 -18 84
-40 62z"/>
<path d="M4156 2453 c-3 -4 -6 -22 -6 -40 0 -27 4 -34 18 -31 22 4 30 63 9 71
-8 3 -18 3 -21 0z"/>
<path d="M2906 1993 c-3 -4 -6 -19 -6 -35 0 -39 34 -35 38 3 3 25 -18 46 -32
32z"/>
<path d="M2906 1864 c-7 -19 1 -34 19 -34 15 0 28 27 19 41 -9 14 -31 10 -38
-7z"/>
<path d="M4490 1880 c0 -13 7 -20 20 -20 13 0 20 7 20 20 0 13 -7 20 -20 20
-13 0 -20 -7 -20 -20z"/>
<path d="M2640 1650 c-12 -8 -12 -10 3 -16 21 -8 35 2 21 16 -5 5 -15 6 -24 0z"/>
<path d="M3647 1628 c-49 -3 -90 -8 -92 -10 -2 -2 94 -2 213 -1 119 2 237 3
261 3 24 0 41 3 37 7 -9 9 -304 10 -419 1z"/>
<path d="M4084 1629 c-3 -5 36 -9 85 -9 50 0 91 4 91 8 0 12 -169 12 -176 1z"/>
<path d="M2816 1439 c33 -35 63 -53 72 -45 10 10 -61 76 -82 76 -18 0 -17 -3
10 -31z"/>
<path d="M3203 1244 c11 -11 100 -16 92 -5 -3 6 -27 11 -52 11 -26 0 -44 -3
-40 -6z"/>
<path d="M3660 1342 c0 -14 23 -32 42 -32 24 0 23 17 -1 30 -23 12 -41 13 -41
2z"/>
<path d="M3640 1290 c0 -5 7 -10 15 -10 8 0 15 -8 15 -18 0 -22 25 -47 58 -57
21 -6 22 -4 16 22 -12 52 -32 73 -69 73 -19 0 -35 -4 -35 -10z"/>
<path d="M3670 1210 c0 -5 5 -10 11 -10 5 0 7 5 4 10 -3 6 -8 10 -11 10 -2 0
-4 -4 -4 -10z"/>
</g>
</svg>
